<?xml version="1.0" encoding="utf-8"?>
<!-- Generator: Adobe Illustrator 24.1.1, SVG Export Plug-In . SVG Version: 6.00 Build 0)  -->
<svg version="1.1" id="Слой_1" xmlns="http://www.w3.org/2000/svg" xmlns:xlink="http://www.w3.org/1999/xlink" x="0px" y="0px"
	 width="18px" height="19.3056px" viewBox="0 0 18 19.3056" style="enable-background:new 0 0 18 19.3056;" xml:space="preserve">
<style type="text/css">
	.st0{fill:#FFFFFF;}
</style>
<path class="st0" d="M2.4576,18.1476c0.0609,0.6704,0.6095,1.158,1.2799,1.158h10.5237c0.6705,0,1.219-0.5079,1.2799-1.158
	l1.1784-12.3522H1.2793L2.4576,18.1476z"/>
<path class="st0" d="M16.7201,1.93h-5.14V1.2799C11.5801,0.5688,11.0113,0,10.3002,0H7.7201C7.009,0,6.4402,0.5688,6.4402,1.2799
	V1.93H1.2799C0.5688,1.93,0,2.4989,0,3.2099s0.5688,1.2799,1.2799,1.2799h15.4402C17.4312,4.4898,18,3.921,18,3.2099
	S17.4312,1.93,16.7201,1.93z"/>
</svg>
